<svg width="176" height="20" viewBox="0 0 176 20" fill="none" xmlns="http://www.w3.org/2000/svg">
<path id="Cards Management System" d="M4.89044 15.195C3.95444 15.195 3.15711 14.9913 2.49844 14.584C1.83978 14.1723 1.33494 13.6003 0.983944 12.868C0.637277 12.1357 0.463944 11.2863 0.463944 10.32C0.463944 9.35367 0.637277 8.50433 0.983944 7.772C1.33494 7.03967 1.83978 6.46983 2.49844 6.0625C3.15711 5.65083 3.95444 5.445 4.89044 5.445C5.96944 5.445 6.86211 5.718 7.56844 6.264C8.27911 6.81 8.77311 7.5445 9.05044 8.4675L7.67244 8.838C7.49044 8.18367 7.16544 7.67017 6.69744 7.2975C6.23378 6.92483 5.63144 6.7385 4.89044 6.7385C4.22744 6.7385 3.67494 6.888 3.23294 7.187C2.79094 7.486 2.45728 7.90417 2.23194 8.4415C2.01094 8.97883 1.90044 9.605 1.90044 10.32C1.89611 11.035 2.00444 11.6612 2.22544 12.1985C2.45078 12.7358 2.78444 13.154 3.22644 13.453C3.67278 13.752 4.22744 13.9015 4.89044 13.9015C5.63144 13.9015 6.23378 13.7152 6.69744 13.3425C7.16544 12.9655 7.49044 12.452 7.67244 11.802L9.05044 12.1725C8.77311 13.0955 8.27911 13.83 7.56844 14.376C6.86211 14.922 5.96944 15.195 4.89044 15.195ZM12.7225 15.195C12.2025 15.195 11.767 15.0997 11.416 14.909C11.065 14.714 10.7985 14.4583 10.6165 14.142C10.4389 13.8213 10.35 13.4703 10.35 13.089C10.35 12.7337 10.4129 12.4217 10.5385 12.153C10.6642 11.8843 10.8505 11.6568 11.0975 11.4705C11.3445 11.2798 11.6479 11.126 12.0075 11.009C12.3195 10.918 12.6727 10.8378 13.067 10.7685C13.4614 10.6992 13.8752 10.6342 14.3085 10.5735C14.7462 10.5128 15.1795 10.4522 15.6085 10.3915L15.1145 10.6645C15.1232 10.1142 15.0062 9.70683 14.7635 9.4425C14.5252 9.17383 14.1135 9.0395 13.5285 9.0395C13.1602 9.0395 12.8222 9.12617 12.5145 9.2995C12.2069 9.4685 11.9924 9.75017 11.871 10.1445L10.6035 9.7545C10.7769 9.15217 11.1062 8.67333 11.5915 8.318C12.0812 7.96267 12.7312 7.785 13.5415 7.785C14.1699 7.785 14.7159 7.89333 15.1795 8.11C15.6475 8.32233 15.9899 8.66033 16.2065 9.124C16.3192 9.35367 16.3885 9.59633 16.4145 9.852C16.4405 10.1077 16.4535 10.3828 16.4535 10.6775V15H15.251V13.3945L15.485 13.6025C15.1947 14.1398 14.8242 14.5407 14.3735 14.805C13.9272 15.065 13.3769 15.195 12.7225 15.195ZM12.963 14.0835C13.3487 14.0835 13.6802 14.0163 13.9575 13.882C14.2349 13.7433 14.458 13.5678 14.627 13.3555C14.796 13.1432 14.9065 12.9222 14.9585 12.6925C15.0322 12.4845 15.0734 12.2505 15.082 11.9905C15.095 11.7305 15.1015 11.5225 15.1015 11.3665L15.5435 11.529C15.1145 11.594 14.7245 11.6525 14.3735 11.7045C14.0225 11.7565 13.704 11.8085 13.418 11.8605C13.1364 11.9082 12.885 11.9667 12.664 12.036C12.4777 12.101 12.3109 12.179 12.1635 12.27C12.0205 12.361 11.9057 12.4715 11.819 12.6015C11.7367 12.7315 11.6955 12.8897 11.6955 13.076C11.6955 13.258 11.741 13.427 11.832 13.583C11.923 13.7347 12.0617 13.856 12.248 13.947C12.4344 14.038 12.6727 14.0835 12.963 14.0835ZM18.4014 15V7.98H19.6104V9.683L19.4414 9.462C19.5281 9.23667 19.6407 9.03083 19.7794 8.8445C19.9181 8.65383 20.0784 8.49783 20.2604 8.3765C20.4381 8.2465 20.6352 8.14683 20.8519 8.0775C21.0729 8.00383 21.2982 7.9605 21.5279 7.9475C21.7576 7.93017 21.9786 7.941 22.1909 7.98V9.254C21.9612 9.19333 21.7056 9.176 21.4239 9.202C21.1466 9.228 20.8909 9.31683 20.6569 9.4685C20.4359 9.6115 20.2604 9.78483 20.1304 9.9885C20.0047 10.1922 19.9137 10.4197 19.8574 10.671C19.8011 10.918 19.7729 11.1802 19.7729 11.4575V15H18.4014ZM26.3503 15.195C25.696 15.195 25.1305 15.0325 24.6538 14.7075C24.1815 14.3825 23.8153 13.9405 23.5553 13.3815C23.2996 12.8182 23.1718 12.1855 23.1718 11.4835C23.1718 10.7772 23.3018 10.1467 23.5618 9.592C23.8218 9.033 24.1901 8.59317 24.6668 8.2725C25.1478 7.9475 25.7176 7.785 26.3763 7.785C27.0393 7.785 27.5961 7.9475 28.0468 8.2725C28.5018 8.59317 28.8441 9.033 29.0738 9.592C29.3078 10.151 29.4248 10.7815 29.4248 11.4835C29.4248 12.1855 29.3078 12.816 29.0738 13.375C28.8398 13.934 28.4953 14.3782 28.0403 14.7075C27.5853 15.0325 27.022 15.195 26.3503 15.195ZM26.5388 13.9665C26.9851 13.9665 27.3491 13.8603 27.6308 13.648C27.9125 13.4357 28.1183 13.1432 28.2483 12.7705C28.3783 12.3978 28.4433 11.9688 28.4433 11.4835C28.4433 10.9982 28.3761 10.5692 28.2418 10.1965C28.1118 9.82383 27.9081 9.5335 27.6308 9.3255C27.3578 9.1175 27.009 9.0135 26.5843 9.0135C26.1336 9.0135 25.7631 9.124 25.4728 9.345C25.1825 9.566 24.9658 9.86283 24.8228 10.2355C24.6841 10.6082 24.6148 11.0242 24.6148 11.4835C24.6148 11.9472 24.6841 12.3675 24.8228 12.7445C24.9658 13.1172 25.1781 13.414 25.4598 13.635C25.7458 13.856 26.1055 13.9665 26.5388 13.9665ZM28.4433 15V9.9495H28.2873V5.64H29.6523V15H28.4433ZM34.4155 15.1885C33.5618 15.1885 32.8663 15 32.329 14.623C31.7916 14.246 31.4623 13.7152 31.341 13.0305L32.732 12.816C32.8186 13.18 33.018 13.4682 33.33 13.6805C33.6463 13.8885 34.0385 13.9925 34.5065 13.9925C34.9311 13.9925 35.2626 13.9058 35.501 13.7325C35.7436 13.5592 35.865 13.3208 35.865 13.0175C35.865 12.8398 35.8216 12.6968 35.735 12.5885C35.6526 12.4758 35.4771 12.3697 35.2085 12.27C34.9398 12.1703 34.5303 12.0468 33.98 11.8995C33.3776 11.7435 32.8988 11.5767 32.5435 11.399C32.1925 11.217 31.9411 11.0068 31.7895 10.7685C31.6421 10.5258 31.5685 10.2333 31.5685 9.891C31.5685 9.46633 31.6811 9.09583 31.9065 8.7795C32.1318 8.46317 32.4481 8.21833 32.8555 8.045C33.2671 7.87167 33.7481 7.785 34.2985 7.785C34.8358 7.785 35.3146 7.8695 35.735 8.0385C36.1553 8.2075 36.4955 8.448 36.7555 8.76C37.0155 9.06767 37.1715 9.4295 37.2235 9.8455L35.8325 10.099C35.7848 9.761 35.6266 9.4945 35.358 9.2995C35.0893 9.1045 34.7405 8.99833 34.3115 8.981C33.8998 8.96367 33.5661 9.033 33.3105 9.189C33.0548 9.34067 32.927 9.55083 32.927 9.8195C32.927 9.9755 32.9746 10.1077 33.07 10.216C33.1696 10.3243 33.3603 10.4283 33.642 10.528C33.9236 10.6277 34.3396 10.7468 34.89 10.8855C35.4793 11.0372 35.9473 11.2062 36.294 11.3925C36.6406 11.5745 36.8876 11.7933 37.035 12.049C37.1866 12.3003 37.2625 12.6058 37.2625 12.9655C37.2625 13.6588 37.009 14.2027 36.502 14.597C35.9993 14.9913 35.3038 15.1885 34.4155 15.1885ZM41.8232 15V5.64H43.0517L46.4447 12.6795L49.8182 5.64H51.0597V14.9935H49.7727V8.591L46.7502 15H46.1327L43.1037 8.591V15H41.8232ZM55.1234 15.195C54.6034 15.195 54.1679 15.0997 53.8169 14.909C53.4659 14.714 53.1994 14.4583 53.0174 14.142C52.8397 13.8213 52.7509 13.4703 52.7509 13.089C52.7509 12.7337 52.8137 12.4217 52.9394 12.153C53.065 11.8843 53.2514 11.6568 53.4984 11.4705C53.7454 11.2798 54.0487 11.126 54.4084 11.009C54.7204 10.918 55.0735 10.8378 55.4679 10.7685C55.8622 10.6992 56.276 10.6342 56.7094 10.5735C57.147 10.5128 57.5804 10.4522 58.0094 10.3915L57.5154 10.6645C57.524 10.1142 57.407 9.70683 57.1644 9.4425C56.926 9.17383 56.5144 9.0395 55.9294 9.0395C55.561 9.0395 55.223 9.12617 54.9154 9.2995C54.6077 9.4685 54.3932 9.75017 54.2719 10.1445L53.0044 9.7545C53.1777 9.15217 53.507 8.67333 53.9924 8.318C54.482 7.96267 55.132 7.785 55.9424 7.785C56.5707 7.785 57.1167 7.89333 57.5804 8.11C58.0484 8.32233 58.3907 8.66033 58.6074 9.124C58.72 9.35367 58.7894 9.59633 58.8154 9.852C58.8414 10.1077 58.8544 10.3828 58.8544 10.6775V15H57.6519V13.3945L57.8859 13.6025C57.5955 14.1398 57.225 14.5407 56.7744 14.805C56.328 15.065 55.7777 15.195 55.1234 15.195ZM55.3639 14.0835C55.7495 14.0835 56.081 14.0163 56.3584 13.882C56.6357 13.7433 56.8589 13.5678 57.0279 13.3555C57.1969 13.1432 57.3074 12.9222 57.3594 12.6925C57.433 12.4845 57.4742 12.2505 57.4829 11.9905C57.4959 11.7305 57.5024 11.5225 57.5024 11.3665L57.9444 11.529C57.5154 11.594 57.1254 11.6525 56.7744 11.7045C56.4234 11.7565 56.1049 11.8085 55.8189 11.8605C55.5372 11.9082 55.2859 11.9667 55.0649 12.036C54.8785 12.101 54.7117 12.179 54.5644 12.27C54.4214 12.361 54.3065 12.4715 54.2199 12.6015C54.1375 12.7315 54.0964 12.8897 54.0964 13.076C54.0964 13.258 54.1419 13.427 54.2329 13.583C54.3239 13.7347 54.4625 13.856 54.6489 13.947C54.8352 14.038 55.0735 14.0835 55.3639 14.0835ZM65.7292 15V11.5485C65.7292 11.2755 65.7054 10.996 65.6577 10.71C65.6144 10.4197 65.5277 10.151 65.3977 9.904C65.2721 9.657 65.0922 9.45767 64.8582 9.306C64.6286 9.15433 64.3274 9.0785 63.9547 9.0785C63.7121 9.0785 63.4824 9.11967 63.2657 9.202C63.0491 9.28 62.8584 9.40783 62.6937 9.5855C62.5334 9.76317 62.4056 9.99717 62.3102 10.2875C62.2192 10.5778 62.1737 10.931 62.1737 11.347L61.3287 11.0285C61.3287 10.3915 61.4479 9.83033 61.6862 9.345C61.9246 8.85533 62.2669 8.474 62.7132 8.201C63.1596 7.928 63.6991 7.7915 64.3317 7.7915C64.8171 7.7915 65.2244 7.8695 65.5537 8.0255C65.8831 8.1815 66.1496 8.38733 66.3532 8.643C66.5612 8.89433 66.7194 9.1695 66.8277 9.4685C66.9361 9.7675 67.0097 10.06 67.0487 10.346C67.0877 10.632 67.1072 10.8833 67.1072 11.1V15H65.7292ZM60.7957 15V7.98H62.0112V10.008H62.1737V15H60.7957ZM71.0428 15.195C70.5228 15.195 70.0873 15.0997 69.7363 14.909C69.3853 14.714 69.1188 14.4583 68.9368 14.142C68.7591 13.8213 68.6703 13.4703 68.6703 13.089C68.6703 12.7337 68.7331 12.4217 68.8588 12.153C68.9844 11.8843 69.1708 11.6568 69.4178 11.4705C69.6648 11.2798 69.9681 11.126 70.3278 11.009C70.6398 10.918 70.9929 10.8378 71.3873 10.7685C71.7816 10.6992 72.1954 10.6342 72.6288 10.5735C73.0664 10.5128 73.4998 10.4522 73.9288 10.3915L73.4348 10.6645C73.4434 10.1142 73.3264 9.70683 73.0838 9.4425C72.8454 9.17383 72.4338 9.0395 71.8488 9.0395C71.4804 9.0395 71.1424 9.12617 70.8348 9.2995C70.5271 9.4685 70.3126 9.75017 70.1913 10.1445L68.9238 9.7545C69.0971 9.15217 69.4264 8.67333 69.9118 8.318C70.4014 7.96267 71.0514 7.785 71.8618 7.785C72.4901 7.785 73.0361 7.89333 73.4998 8.11C73.9678 8.32233 74.3101 8.66033 74.5268 9.124C74.6394 9.35367 74.7088 9.59633 74.7348 9.852C74.7608 10.1077 74.7738 10.3828 74.7738 10.6775V15H73.5713V13.3945L73.8053 13.6025C73.5149 14.1398 73.1444 14.5407 72.6938 14.805C72.2474 15.065 71.6971 15.195 71.0428 15.195ZM71.2833 14.0835C71.6689 14.0835 72.0004 14.0163 72.2778 13.882C72.5551 13.7433 72.7783 13.5678 72.9473 13.3555C73.1163 13.1432 73.2268 12.9222 73.2788 12.6925C73.3524 12.4845 73.3936 12.2505 73.4023 11.9905C73.4153 11.7305 73.4218 11.5225 73.4218 11.3665L73.8638 11.529C73.4348 11.594 73.0448 11.6525 72.6938 11.7045C72.3428 11.7565 72.0243 11.8085 71.7383 11.8605C71.4566 11.9082 71.2053 11.9667 70.9843 12.036C70.7979 12.101 70.6311 12.179 70.4838 12.27C70.3408 12.361 70.2259 12.4715 70.1393 12.6015C70.0569 12.7315 70.0158 12.8897 70.0158 13.076C70.0158 13.258 70.0613 13.427 70.1523 13.583C70.2433 13.7347 70.3819 13.856 70.5683 13.947C70.7546 14.038 70.9929 14.0835 71.2833 14.0835ZM79.6141 18.315C79.2371 18.315 78.871 18.2565 78.5156 18.1395C78.1646 18.0225 77.844 17.8492 77.5536 17.6195C77.2633 17.3942 77.0228 17.1147 76.8321 16.781L78.0866 16.144C78.2383 16.443 78.455 16.6618 78.7366 16.8005C79.0183 16.9392 79.3151 17.0085 79.6271 17.0085C80.0128 17.0085 80.3421 16.9392 80.6151 16.8005C80.8881 16.6662 81.094 16.4625 81.2326 16.1895C81.3756 15.9165 81.445 15.5785 81.4406 15.1755V13.2125H81.6031V7.98H82.8056V15.1885C82.8056 15.3748 82.7991 15.5525 82.7861 15.7215C82.7731 15.8905 82.7493 16.0595 82.7146 16.2285C82.615 16.7008 82.4243 17.0908 82.1426 17.3985C81.8653 17.7062 81.51 17.9358 81.0766 18.0875C80.6476 18.2392 80.1601 18.315 79.6141 18.315ZM79.5101 15.195C78.8558 15.195 78.2903 15.0325 77.8136 14.7075C77.3413 14.3825 76.9751 13.9405 76.7151 13.3815C76.4595 12.8182 76.3316 12.1855 76.3316 11.4835C76.3316 10.7772 76.4616 10.1467 76.7216 9.592C76.9816 9.033 77.35 8.59317 77.8266 8.2725C78.3076 7.9475 78.8775 7.785 79.5361 7.785C80.1991 7.785 80.756 7.9475 81.2066 8.2725C81.6616 8.59317 82.004 9.033 82.2336 9.592C82.4676 10.151 82.5846 10.7815 82.5846 11.4835C82.5846 12.1855 82.4676 12.816 82.2336 13.375C81.9996 13.934 81.6551 14.3782 81.2001 14.7075C80.7451 15.0325 80.1818 15.195 79.5101 15.195ZM79.6986 13.9665C80.145 13.9665 80.509 13.8603 80.7906 13.648C81.0723 13.4357 81.2781 13.1432 81.4081 12.7705C81.5381 12.3978 81.6031 11.9688 81.6031 11.4835C81.6031 10.9982 81.536 10.5692 81.4016 10.1965C81.2716 9.82383 81.068 9.5335 80.7906 9.3255C80.5176 9.1175 80.1688 9.0135 79.7441 9.0135C79.2935 9.0135 78.923 9.124 78.6326 9.345C78.3423 9.566 78.1256 9.86283 77.9826 10.2355C77.844 10.6082 77.7746 11.0242 77.7746 11.4835C77.7746 11.9472 77.844 12.3675 77.9826 12.7445C78.1256 13.1172 78.338 13.414 78.6196 13.635C78.9056 13.856 79.2653 13.9665 79.6986 13.9665ZM88.0043 15.195C87.3067 15.195 86.6935 15.0433 86.1648 14.74C85.6405 14.4323 85.231 14.0055 84.9363 13.4595C84.646 12.9092 84.5008 12.2722 84.5008 11.5485C84.5008 10.7815 84.6438 10.1163 84.9298 9.553C85.2202 8.98967 85.6232 8.55417 86.1388 8.2465C86.6545 7.93883 87.2547 7.785 87.9393 7.785C88.6543 7.785 89.2632 7.95183 89.7658 8.2855C90.2685 8.61483 90.6433 9.085 90.8903 9.696C91.1417 10.307 91.2413 11.0328 91.1893 11.8735H89.8308V11.3795C89.8222 10.5648 89.6662 9.9625 89.3628 9.5725C89.0638 9.1825 88.6067 8.9875 87.9913 8.9875C87.311 8.9875 86.7997 9.202 86.4573 9.631C86.115 10.06 85.9438 10.6797 85.9438 11.49C85.9438 12.2613 86.115 12.8593 86.4573 13.284C86.7997 13.7043 87.2937 13.9145 87.9393 13.9145C88.364 13.9145 88.7302 13.8192 89.0378 13.6285C89.3498 13.4335 89.5925 13.1562 89.7658 12.7965L91.0983 13.219C90.8253 13.8473 90.4115 14.3348 89.8568 14.6815C89.3022 15.0238 88.6847 15.195 88.0043 15.195ZM85.5018 11.8735V10.814H90.5133V11.8735H85.5018ZM101.128 15L101.135 10.6255C101.135 10.1185 101.005 9.72417 100.745 9.4425C100.485 9.1565 100.142 9.0135 99.7177 9.0135C99.4577 9.0135 99.2194 9.07417 99.0027 9.1955C98.7904 9.3125 98.6171 9.49017 98.4827 9.7285C98.3527 9.9625 98.2877 10.2572 98.2877 10.6125L97.6312 10.281C97.6226 9.787 97.7266 9.35367 97.9432 8.981C98.1642 8.60833 98.4632 8.32017 98.8402 8.1165C99.2172 7.9085 99.6397 7.8045 100.108 7.8045C100.866 7.8045 101.453 8.032 101.869 8.487C102.285 8.942 102.493 9.5465 102.493 10.3005L102.487 15H101.128ZM92.7107 15V7.98H93.9197V10.008H94.0757V15H92.7107ZM96.9227 15L96.9292 10.6515C96.9292 10.1402 96.7992 9.73933 96.5392 9.449C96.2836 9.15867 95.9391 9.0135 95.5057 9.0135C95.0767 9.0135 94.7301 9.16083 94.4657 9.4555C94.2057 9.75017 94.0757 10.1358 94.0757 10.6125L93.4257 10.1965C93.4257 9.73717 93.5362 9.32767 93.7572 8.968C93.9782 8.60833 94.2772 8.3245 94.6542 8.1165C95.0312 7.9085 95.4581 7.8045 95.9347 7.8045C96.4331 7.8045 96.8577 7.91067 97.2087 8.123C97.5597 8.331 97.8262 8.6235 98.0082 9.0005C98.1946 9.3775 98.2877 9.81517 98.2877 10.3135L98.2812 15H96.9227ZM107.466 15.195C106.768 15.195 106.155 15.0433 105.626 14.74C105.102 14.4323 104.692 14.0055 104.398 13.4595C104.107 12.9092 103.962 12.2722 103.962 11.5485C103.962 10.7815 104.105 10.1163 104.391 9.553C104.682 8.98967 105.085 8.55417 105.6 8.2465C106.116 7.93883 106.716 7.785 107.401 7.785C108.116 7.785 108.725 7.95183 109.227 8.2855C109.73 8.61483 110.105 9.085 110.352 9.696C110.603 10.307 110.703 11.0328 110.651 11.8735H109.292V11.3795C109.284 10.5648 109.128 9.9625 108.824 9.5725C108.525 9.1825 108.068 8.9875 107.453 8.9875C106.772 8.9875 106.261 9.202 105.919 9.631C105.576 10.06 105.405 10.6797 105.405 11.49C105.405 12.2613 105.576 12.8593 105.919 13.284C106.261 13.7043 106.755 13.9145 107.401 13.9145C107.825 13.9145 108.192 13.8192 108.499 13.6285C108.811 13.4335 109.054 13.1562 109.227 12.7965L110.56 13.219C110.287 13.8473 109.873 14.3348 109.318 14.6815C108.764 15.0238 108.146 15.195 107.466 15.195ZM104.963 11.8735V10.814H109.975V11.8735H104.963ZM117.106 15V11.5485C117.106 11.2755 117.082 10.996 117.034 10.71C116.991 10.4197 116.904 10.151 116.774 9.904C116.648 9.657 116.469 9.45767 116.235 9.306C116.005 9.15433 115.704 9.0785 115.331 9.0785C115.088 9.0785 114.859 9.11967 114.642 9.202C114.425 9.28 114.235 9.40783 114.07 9.5855C113.91 9.76317 113.782 9.99717 113.687 10.2875C113.596 10.5778 113.55 10.931 113.55 11.347L112.705 11.0285C112.705 10.3915 112.824 9.83033 113.063 9.345C113.301 8.85533 113.643 8.474 114.09 8.201C114.536 7.928 115.075 7.7915 115.708 7.7915C116.193 7.7915 116.601 7.8695 116.93 8.0255C117.259 8.1815 117.526 8.38733 117.73 8.643C117.938 8.89433 118.096 9.1695 118.204 9.4685C118.312 9.7675 118.386 10.06 118.425 10.346C118.464 10.632 118.484 10.8833 118.484 11.1V15H117.106ZM112.172 15V7.98H113.388V10.008H113.55V15H112.172ZM124.454 15C124.012 15.0867 123.578 15.1235 123.154 15.1105C122.729 15.0975 122.35 15.0152 122.016 14.8635C121.683 14.7118 121.431 14.4735 121.262 14.1485C121.111 13.8582 121.028 13.5635 121.015 13.2645C121.007 12.9612 121.002 12.6188 121.002 12.2375V6.03H122.367V12.1725C122.367 12.4542 122.369 12.699 122.374 12.907C122.382 13.115 122.428 13.2905 122.51 13.4335C122.666 13.7022 122.913 13.856 123.251 13.895C123.594 13.9297 123.994 13.9145 124.454 13.8495V15ZM119.657 9.072V7.98H124.454V9.072H119.657ZM132.449 15.195C131.778 15.195 131.171 15.0802 130.629 14.8505C130.092 14.6165 129.648 14.285 129.297 13.856C128.95 13.4227 128.725 12.9092 128.621 12.3155L130.038 12.101C130.181 12.673 130.48 13.1193 130.935 13.44C131.39 13.7563 131.921 13.9145 132.527 13.9145C132.904 13.9145 133.251 13.856 133.567 13.739C133.884 13.6177 134.137 13.4465 134.328 13.2255C134.523 13.0002 134.62 12.7315 134.62 12.4195C134.62 12.2505 134.59 12.101 134.529 11.971C134.473 11.841 134.393 11.7283 134.289 11.633C134.189 11.5333 134.066 11.4488 133.918 11.3795C133.775 11.3058 133.617 11.243 133.444 11.191L131.045 10.4825C130.811 10.4132 130.573 10.3243 130.33 10.216C130.088 10.1033 129.864 9.95817 129.661 9.7805C129.461 9.5985 129.299 9.37533 129.173 9.111C129.048 8.84233 128.985 8.51733 128.985 8.136C128.985 7.55967 129.132 7.07217 129.427 6.6735C129.726 6.2705 130.129 5.96717 130.636 5.7635C131.143 5.5555 131.71 5.4515 132.339 5.4515C132.971 5.46017 133.537 5.57283 134.035 5.7895C134.538 6.00617 134.954 6.31817 135.283 6.7255C135.617 7.1285 135.847 7.61817 135.972 8.1945L134.516 8.4415C134.451 8.0905 134.313 7.78933 134.1 7.538C133.888 7.28233 133.628 7.08733 133.32 6.953C133.013 6.81433 132.679 6.74283 132.319 6.7385C131.973 6.72983 131.654 6.78183 131.364 6.8945C131.078 7.00717 130.848 7.16533 130.675 7.369C130.506 7.57267 130.421 7.80667 130.421 8.071C130.421 8.331 130.497 8.54117 130.649 8.7015C130.8 8.86183 130.987 8.98967 131.208 9.085C131.433 9.176 131.656 9.25183 131.877 9.3125L133.606 9.8C133.823 9.86067 134.068 9.943 134.341 10.047C134.618 10.1467 134.885 10.2875 135.14 10.4695C135.4 10.6515 135.615 10.8942 135.784 11.1975C135.953 11.4965 136.037 11.8735 136.037 12.3285C136.037 12.8008 135.942 13.2168 135.751 13.5765C135.561 13.9318 135.298 14.2308 134.965 14.4735C134.635 14.7118 134.254 14.8917 133.821 15.013C133.387 15.1343 132.93 15.195 132.449 15.195ZM138.505 18.12L139.863 14.4215L139.883 15.5135L136.821 7.98H138.238L140.526 13.7975H140.11L142.294 7.98H143.672L139.798 18.12H138.505ZM147.635 15.1885C146.781 15.1885 146.086 15 145.548 14.623C145.011 14.246 144.682 13.7152 144.56 13.0305L145.951 12.816C146.038 13.18 146.237 13.4682 146.549 13.6805C146.866 13.8885 147.258 13.9925 147.726 13.9925C148.15 13.9925 148.482 13.9058 148.72 13.7325C148.963 13.5592 149.084 13.3208 149.084 13.0175C149.084 12.8398 149.041 12.6968 148.954 12.5885C148.872 12.4758 148.696 12.3697 148.428 12.27C148.159 12.1703 147.75 12.0468 147.199 11.8995C146.597 11.7435 146.118 11.5767 145.763 11.399C145.412 11.217 145.16 11.0068 145.009 10.7685C144.861 10.5258 144.788 10.2333 144.788 9.891C144.788 9.46633 144.9 9.09583 145.126 8.7795C145.351 8.46317 145.667 8.21833 146.075 8.045C146.486 7.87167 146.967 7.785 147.518 7.785C148.055 7.785 148.534 7.8695 148.954 8.0385C149.375 8.2075 149.715 8.448 149.975 8.76C150.235 9.06767 150.391 9.4295 150.443 9.8455L149.052 10.099C149.004 9.761 148.846 9.4945 148.577 9.2995C148.309 9.1045 147.96 8.99833 147.531 8.981C147.119 8.96367 146.785 9.033 146.53 9.189C146.274 9.34067 146.146 9.55083 146.146 9.8195C146.146 9.9755 146.194 10.1077 146.289 10.216C146.389 10.3243 146.58 10.4283 146.861 10.528C147.143 10.6277 147.559 10.7468 148.109 10.8855C148.699 11.0372 149.167 11.2062 149.513 11.3925C149.86 11.5745 150.107 11.7933 150.254 12.049C150.406 12.3003 150.482 12.6058 150.482 12.9655C150.482 13.6588 150.228 14.2027 149.721 14.597C149.219 14.9913 148.523 15.1885 147.635 15.1885ZM156.197 15C155.755 15.0867 155.322 15.1235 154.897 15.1105C154.472 15.0975 154.093 15.0152 153.76 14.8635C153.426 14.7118 153.175 14.4735 153.006 14.1485C152.854 13.8582 152.772 13.5635 152.759 13.2645C152.75 12.9612 152.746 12.6188 152.746 12.2375V6.03H154.111V12.1725C154.111 12.4542 154.113 12.699 154.117 12.907C154.126 13.115 154.171 13.2905 154.254 13.4335C154.41 13.7022 154.657 13.856 154.995 13.895C155.337 13.9297 155.738 13.9145 156.197 13.8495V15ZM151.4 9.072V7.98H156.197V9.072H151.4ZM160.733 15.195C160.036 15.195 159.422 15.0433 158.894 14.74C158.369 14.4323 157.96 14.0055 157.665 13.4595C157.375 12.9092 157.23 12.2722 157.23 11.5485C157.23 10.7815 157.373 10.1163 157.659 9.553C157.949 8.98967 158.352 8.55417 158.868 8.2465C159.383 7.93883 159.984 7.785 160.668 7.785C161.383 7.785 161.992 7.95183 162.495 8.2855C162.997 8.61483 163.372 9.085 163.619 9.696C163.871 10.307 163.97 11.0328 163.918 11.8735H162.56V11.3795C162.551 10.5648 162.395 9.9625 162.092 9.5725C161.793 9.1825 161.336 8.9875 160.72 8.9875C160.04 8.9875 159.529 9.202 159.186 9.631C158.844 10.06 158.673 10.6797 158.673 11.49C158.673 12.2613 158.844 12.8593 159.186 13.284C159.529 13.7043 160.023 13.9145 160.668 13.9145C161.093 13.9145 161.459 13.8192 161.767 13.6285C162.079 13.4335 162.321 13.1562 162.495 12.7965L163.827 13.219C163.554 13.8473 163.14 14.3348 162.586 14.6815C162.031 15.0238 161.414 15.195 160.733 15.195ZM158.231 11.8735V10.814H163.242V11.8735H158.231ZM173.857 15L173.864 10.6255C173.864 10.1185 173.734 9.72417 173.474 9.4425C173.214 9.1565 172.871 9.0135 172.447 9.0135C172.187 9.0135 171.948 9.07417 171.732 9.1955C171.519 9.3125 171.346 9.49017 171.212 9.7285C171.082 9.9625 171.017 10.2572 171.017 10.6125L170.36 10.281C170.351 9.787 170.455 9.35367 170.672 8.981C170.893 8.60833 171.192 8.32017 171.569 8.1165C171.946 7.9085 172.369 7.8045 172.837 7.8045C173.595 7.8045 174.182 8.032 174.598 8.487C175.014 8.942 175.222 9.5465 175.222 10.3005L175.216 15H173.857ZM165.44 15V7.98H166.649V10.008H166.805V15H165.44ZM169.652 15L169.658 10.6515C169.658 10.1402 169.528 9.73933 169.268 9.449C169.012 9.15867 168.668 9.0135 168.235 9.0135C167.806 9.0135 167.459 9.16083 167.195 9.4555C166.935 9.75017 166.805 10.1358 166.805 10.6125L166.155 10.1965C166.155 9.73717 166.265 9.32767 166.486 8.968C166.707 8.60833 167.006 8.3245 167.383 8.1165C167.76 7.9085 168.187 7.8045 168.664 7.8045C169.162 7.8045 169.587 7.91067 169.938 8.123C170.289 8.331 170.555 8.6235 170.737 9.0005C170.923 9.3775 171.017 9.81517 171.017 10.3135L171.01 15H169.652Z" fill="black"/>
</svg>
